<svg width="31" height="30" viewBox="0 0 31 30" fill="none" xmlns="http://www.w3.org/2000/svg">
<circle cx="15.4" cy="14.8" r="14.8" fill="#A6A6A6"/>
<path d="M11.64 6.3999H18.36C20.92 6.3999 23 8.4799 23 11.0399V17.7599C23 18.9905 22.5112 20.1707 21.641 21.0409C20.7708 21.911 19.5906 22.3999 18.36 22.3999H11.64C9.08003 22.3999 7.00003 20.3199 7.00003 17.7599V11.0399C7.00003 9.8093 7.48889 8.6291 8.35906 7.75893C9.22922 6.88876 10.4094 6.3999 11.64 6.3999ZM11.48 7.9999C10.7162 7.9999 9.98367 8.30333 9.44356 8.84344C8.90346 9.38354 8.60003 10.1161 8.60003 10.8799V17.9199C8.60003 19.5119 9.88803 20.7999 11.48 20.7999H18.52C19.2839 20.7999 20.0164 20.4965 20.5565 19.9564C21.0966 19.4163 21.4 18.6837 21.4 17.9199V10.8799C21.4 9.2879 20.112 7.9999 18.52 7.9999H11.48ZM19.2 9.1999C19.4652 9.1999 19.7196 9.30526 19.9071 9.4928C20.0947 9.68033 20.2 9.93469 20.2 10.1999C20.2 10.4651 20.0947 10.7195 19.9071 10.907C19.7196 11.0945 19.4652 11.1999 19.2 11.1999C18.9348 11.1999 18.6805 11.0945 18.4929 10.907C18.3054 10.7195 18.2 10.4651 18.2 10.1999C18.2 9.93469 18.3054 9.68033 18.4929 9.4928C18.6805 9.30526 18.9348 9.1999 19.2 9.1999ZM15 10.3999C16.0609 10.3999 17.0783 10.8213 17.8285 11.5715C18.5786 12.3216 19 13.339 19 14.3999C19 15.4608 18.5786 16.4782 17.8285 17.2283C17.0783 17.9785 16.0609 18.3999 15 18.3999C13.9392 18.3999 12.9217 17.9785 12.1716 17.2283C11.4215 16.4782 11 15.4608 11 14.3999C11 13.339 11.4215 12.3216 12.1716 11.5715C12.9217 10.8213 13.9392 10.3999 15 10.3999ZM15 11.9999C14.3635 11.9999 13.7531 12.2528 13.303 12.7028C12.8529 13.1529 12.6 13.7634 12.6 14.3999C12.6 15.0364 12.8529 15.6469 13.303 16.097C13.7531 16.547 14.3635 16.7999 15 16.7999C15.6365 16.7999 16.247 16.547 16.6971 16.097C17.1472 15.6469 17.4 15.0364 17.4 14.3999C17.4 13.7634 17.1472 13.1529 16.6971 12.7028C16.247 12.2528 15.6365 11.9999 15 11.9999Z" fill="white"/>
</svg>
