<svg width="31" height="30" viewBox="0 0 31 30" fill="none" xmlns="http://www.w3.org/2000/svg">
<circle cx="15.6" cy="14.8" r="14.8" fill="#A6A6A6"/>
<path d="M11.152 8.79977C11.1518 9.22412 10.983 9.631 10.6828 9.93091C10.3826 10.2308 9.97551 10.3992 9.55117 10.399C9.12682 10.3988 8.71994 10.23 8.42003 9.92978C8.12012 9.62957 7.95175 9.22252 7.95197 8.79817C7.95218 8.37383 8.12095 7.96695 8.42116 7.66704C8.72137 7.36713 9.12842 7.19876 9.55277 7.19897C9.97711 7.19919 10.384 7.36796 10.6839 7.66817C10.9838 7.96838 11.1522 8.37543 11.152 8.79977ZM11.2 11.5838H7.99997V21.5998H11.2V11.5838ZM16.256 11.5838H13.072V21.5998H16.224V16.3438C16.224 13.4158 20.04 13.1438 20.04 16.3438V21.5998H23.2V15.2558C23.2 10.3198 17.552 10.5038 16.224 12.9278L16.256 11.5838Z" fill="white"/>
</svg>
