<svg width="16" height="16" viewBox="0 0 16 16" fill="none" xmlns="http://www.w3.org/2000/svg">
<path d="M14.6867 11.1484L10.9961 9.49445C10.8289 9.4228 10.6464 9.394 10.4653 9.41064C10.2841 9.42728 10.11 9.48885 9.9586 9.58977C9.94327 9.59967 9.92865 9.61063 9.91485 9.62258L7.98595 11.2632C7.96593 11.2741 7.94365 11.2802 7.92087 11.281C7.89809 11.2818 7.87544 11.2773 7.8547 11.2679C6.61485 10.6695 5.33048 9.39289 4.7297 8.17023C4.71969 8.1498 4.71449 8.12736 4.71449 8.10461C4.71449 8.08186 4.71969 8.05942 4.7297 8.03899L6.37579 6.08586C6.3878 6.07156 6.39876 6.05642 6.4086 6.04055C6.50812 5.8886 6.56824 5.71426 6.58351 5.53326C6.59879 5.35226 6.56875 5.17031 6.4961 5.00383L4.85391 1.31945C4.76066 1.10196 4.59937 0.920581 4.39427 0.802536C4.18917 0.684491 3.95132 0.636149 3.71641 0.664766C2.69556 0.799142 1.75854 1.30055 1.08038 2.07533C0.402211 2.85011 0.0292845 3.84527 0.0312578 4.87492C0.0312578 10.9921 5.00782 15.9687 11.125 15.9687C12.1547 15.9706 13.1498 15.5977 13.9246 14.9196C14.6994 14.2414 15.2008 13.3044 15.3352 12.2835C15.3637 12.0497 15.316 11.8129 15.1992 11.6084C15.0824 11.4039 14.9026 11.2425 14.6867 11.1484ZM11.125 15.0312C5.52501 15.0312 0.968758 10.4749 0.968758 4.87492C0.966146 4.0733 1.25548 3.29816 1.7827 2.69431C2.30992 2.09045 3.03896 1.69921 3.8336 1.59367H3.85157C3.88305 1.59426 3.91362 1.60435 3.93928 1.62261C3.96493 1.64087 3.98446 1.66646 3.99532 1.69602L5.64376 5.37648C5.65316 5.39695 5.65803 5.4192 5.65803 5.44172C5.65803 5.46424 5.65316 5.48649 5.64376 5.50695L3.99454 7.46477C3.98229 7.47879 3.97107 7.49367 3.96095 7.5093C3.85775 7.66684 3.79698 7.84837 3.78452 8.03629C3.77207 8.22421 3.80835 8.41217 3.88985 8.58195C4.58282 10.0007 6.01251 11.4195 7.44688 12.1124C7.61766 12.1935 7.80653 12.2289 7.99507 12.2152C8.18361 12.2015 8.36539 12.1392 8.52266 12.0343C8.53751 12.0241 8.55235 12.0132 8.56641 12.0015L10.4945 10.3609C10.5136 10.3506 10.5346 10.3446 10.5562 10.3433C10.5778 10.3419 10.5994 10.3453 10.6195 10.353L14.3109 12.007C14.3411 12.0198 14.3665 12.0418 14.3834 12.0698C14.4004 12.0979 14.4081 12.1305 14.4055 12.1632C14.3005 12.9582 13.9096 13.6878 13.3059 14.2156C12.7022 14.7434 11.9269 15.0333 11.125 15.0312ZM9.40626 6.12492V2.99992C9.40626 2.8756 9.45564 2.75637 9.54355 2.66847C9.63146 2.58056 9.75069 2.53117 9.87501 2.53117C9.99933 2.53117 10.1186 2.58056 10.2065 2.66847C10.2944 2.75637 10.3438 2.8756 10.3438 2.99992V4.99289L13.2938 2.04367C13.3826 1.96087 13.5001 1.9158 13.6216 1.91794C13.743 1.92008 13.8589 1.96928 13.9448 2.05516C14.0307 2.14104 14.0799 2.25691 14.082 2.37835C14.0841 2.49978 14.0391 2.61731 13.9563 2.70617L11.0063 5.65617H13C13.1243 5.65617 13.2436 5.70556 13.3315 5.79347C13.4194 5.88137 13.4688 6.0006 13.4688 6.12492C13.4688 6.24924 13.4194 6.36847 13.3315 6.45638C13.2436 6.54429 13.1243 6.59367 13 6.59367H9.87501C9.75069 6.59367 9.63146 6.54429 9.54355 6.45638C9.45564 6.36847 9.40626 6.24924 9.40626 6.12492Z" fill="#A6A6A6"/>
</svg>
