<svg width="31" height="30" viewBox="0 0 31 30" fill="none" xmlns="http://www.w3.org/2000/svg">
<circle cx="15.2" cy="14.8" r="14.8" fill="#A6A6A6"/>
<path d="M20.44 8.72795C19.7066 7.98709 18.833 7.39968 17.8701 6.99999C16.9073 6.6003 15.8745 6.39632 14.832 6.39995C10.464 6.39995 6.90401 9.95995 6.90401 14.3279C6.90401 15.728 7.27201 17.088 7.96001 18.288L6.84001 22.4L11.04 21.296C12.2 21.928 13.504 22.2639 14.832 22.2639C19.2 22.2639 22.76 18.7039 22.76 14.3359C22.76 12.2159 21.936 10.2239 20.44 8.72795ZM14.832 20.9199C13.648 20.9199 12.488 20.5999 11.472 19.9999L11.232 19.8559L8.73601 20.5119L9.40001 18.08L9.24001 17.832C8.58221 16.7815 8.23292 15.5673 8.23201 14.3279C8.23201 10.6959 11.192 7.73595 14.824 7.73595C16.584 7.73595 18.24 8.42395 19.48 9.67195C20.094 10.2831 20.5806 11.0101 20.9115 11.8107C21.2425 12.6113 21.4112 13.4696 21.408 14.3359C21.424 17.9679 18.464 20.9199 14.832 20.9199ZM18.448 15.992C18.248 15.8959 17.272 15.4159 17.096 15.344C16.912 15.28 16.784 15.2479 16.648 15.4399C16.512 15.6399 16.136 16.0879 16.024 16.216C15.912 16.3519 15.792 16.3679 15.592 16.2639C15.392 16.1679 14.752 15.952 14 15.28C13.408 14.752 13.016 14.104 12.896 13.9039C12.784 13.7039 12.88 13.5999 12.984 13.4959C13.072 13.4079 13.184 13.2639 13.28 13.1519C13.376 13.0399 13.416 12.9519 13.48 12.8239C13.544 12.6879 13.512 12.576 13.464 12.48C13.416 12.384 13.016 11.408 12.856 11.008C12.696 10.624 12.528 10.6719 12.408 10.6639H12.024C11.888 10.6639 11.68 10.7119 11.496 10.912C11.32 11.1119 10.808 11.5919 10.808 12.568C10.808 13.544 11.52 14.488 11.616 14.616C11.712 14.752 13.016 16.752 15 17.608C15.472 17.816 15.84 17.936 16.128 18.024C16.6 18.176 17.032 18.1519 17.376 18.1039C17.76 18.0479 18.552 17.624 18.712 17.1599C18.88 16.6959 18.88 16.304 18.824 16.216C18.768 16.1279 18.648 16.0879 18.448 15.992Z" fill="white"/>
</svg>
