<svg width="30" height="30" viewBox="0 0 30 30" fill="none" xmlns="http://www.w3.org/2000/svg">
<circle cx="14.8" cy="14.8" r="14.8" fill="#A6A6A6"/>
<g clip-path="url(#clip0_1_2657)">
<path d="M17.0203 18.4061V20.7139C17.0203 21.2024 16.8781 21.4467 16.5937 21.4467C16.426 21.4467 16.2619 21.3665 16.1015 21.2061V17.9139C16.2619 17.7535 16.426 17.6732 16.5937 17.6732C16.8781 17.6732 17.0203 17.9175 17.0203 18.4061ZM20.7171 18.417V18.9201H19.7328V18.417C19.7328 17.9212 19.8968 17.6732 20.2249 17.6732C20.5531 17.6732 20.7171 17.9212 20.7171 18.417ZM10.1515 16.0326H11.3218V15.0045H7.90931V16.0326H9.05775V22.2561H10.1515V16.0326ZM13.3015 22.2561H14.2749V16.8529H13.3015V20.9873C13.0828 21.2936 12.8749 21.4467 12.6781 21.4467C12.5468 21.4467 12.4703 21.3701 12.4484 21.217C12.4411 21.1951 12.4374 21.0675 12.4374 20.8342V16.8529H11.464V21.1295C11.464 21.4868 11.4932 21.7529 11.5515 21.9279C11.639 22.1977 11.8505 22.3326 12.1859 22.3326C12.5359 22.3326 12.9078 22.1102 13.3015 21.6654V22.2561ZM17.9937 20.6373V18.4826C17.9937 17.9503 17.9609 17.5894 17.8953 17.3998C17.7713 16.9915 17.5124 16.7873 17.1187 16.7873C16.7541 16.7873 16.415 16.9842 16.1015 17.3779V15.0045H15.1281V22.2561H16.1015V21.7311C16.4296 22.1321 16.7687 22.3326 17.1187 22.3326C17.5124 22.3326 17.7713 22.1321 17.8953 21.7311C17.9609 21.5342 17.9937 21.1696 17.9937 20.6373ZM21.6906 20.5279V20.3857H20.6953C20.6953 20.7576 20.688 20.98 20.6734 21.0529C20.6223 21.3154 20.4765 21.4467 20.2359 21.4467C19.9005 21.4467 19.7328 21.1951 19.7328 20.692V19.7404H21.6906V18.6139C21.6906 18.0378 21.5921 17.6149 21.3953 17.3451C21.1109 16.9732 20.7244 16.7873 20.2359 16.7873C19.74 16.7873 19.3499 16.9732 19.0656 17.3451C18.8614 17.6149 18.7593 18.0378 18.7593 18.6139V20.5061C18.7593 21.0821 18.865 21.505 19.0765 21.7748C19.3609 22.1467 19.7546 22.3326 20.2578 22.3326C20.7828 22.3326 21.1765 22.1394 21.439 21.7529C21.5703 21.5561 21.6468 21.3592 21.6687 21.1623C21.6833 21.0967 21.6906 20.8852 21.6906 20.5279ZM15.0406 10.542V8.24512C15.0406 7.74199 14.8838 7.49043 14.5703 7.49043C14.2567 7.49043 14.0999 7.74199 14.0999 8.24512V10.542C14.0999 11.0524 14.2567 11.3076 14.5703 11.3076C14.8838 11.3076 15.0406 11.0524 15.0406 10.542ZM22.9046 18.7561C22.9046 20.4623 22.8098 21.7383 22.6203 22.5842C22.5182 23.0144 22.3067 23.3753 21.9859 23.667C21.665 23.9587 21.2932 24.1264 20.8703 24.1701C19.5286 24.3232 17.5051 24.3998 14.7999 24.3998C12.0947 24.3998 10.0713 24.3232 8.72963 24.1701C8.30671 24.1264 7.93301 23.9587 7.60853 23.667C7.28405 23.3753 7.07442 23.0144 6.97963 22.5842C6.79004 21.7675 6.69525 20.4915 6.69525 18.7561C6.69525 17.0498 6.79004 15.7738 6.97963 14.9279C7.08171 14.4977 7.29317 14.1368 7.614 13.8451C7.93483 13.5535 8.31036 13.3821 8.74056 13.3311C10.0749 13.1852 12.0947 13.1123 14.7999 13.1123C17.5051 13.1123 19.5286 13.1852 20.8703 13.3311C21.2932 13.3821 21.6669 13.5535 21.9913 13.8451C22.3158 14.1368 22.5255 14.4977 22.6203 14.9279C22.8098 15.7446 22.9046 17.0206 22.9046 18.7561ZM11.989 4.7998H13.1046L11.7812 9.16387V12.1279H10.6874V9.16387C10.5854 8.62428 10.363 7.85137 10.0203 6.84512C9.75046 6.09408 9.51348 5.4123 9.30931 4.7998H10.4687L11.2453 7.67637L11.989 4.7998ZM16.0359 8.44199V10.3561C16.0359 10.9467 15.9338 11.3769 15.7296 11.6467C15.4525 12.0186 15.0661 12.2045 14.5703 12.2045C14.0817 12.2045 13.6989 12.0186 13.4218 11.6467C13.2176 11.3696 13.1156 10.9394 13.1156 10.3561V8.44199C13.1156 7.85866 13.2176 7.4321 13.4218 7.1623C13.6989 6.79043 14.0817 6.60449 14.5703 6.60449C15.0661 6.60449 15.4525 6.79043 15.7296 7.1623C15.9338 7.4321 16.0359 7.85866 16.0359 8.44199ZM19.6999 6.67012V12.1279H18.7046V11.5264C18.3182 11.9785 17.9426 12.2045 17.5781 12.2045C17.2426 12.2045 17.0275 12.0696 16.9328 11.7998C16.8744 11.6248 16.8453 11.3514 16.8453 10.9795V6.67012H17.8406V10.6842C17.8406 10.9248 17.8442 11.0524 17.8515 11.067C17.8734 11.2274 17.9499 11.3076 18.0812 11.3076C18.2781 11.3076 18.4859 11.1508 18.7046 10.8373V6.67012H19.6999Z" fill="white"/>
</g>
<defs>
<clipPath id="clip0_1_2657">
<rect width="16.8" height="19.6" fill="white" transform="translate(6.39999 4.7998)"/>
</clipPath>
</defs>
</svg>
